/* XPM */
static char * music_20_xpm[] = {
"20 20 2 1",
" 	c None",
".	c #ff79c6",
"                    ",
"                    ",
"             ....   ",
"           ......   ",
"         ....  ..   ",
"       ....    ..   ",
"     ....      ..   ",
"     ..        ..   ",
"     ..        ..   ",
"     ..        ..   ",
"     ..        ..   ",
"     ..        ..   ",
"     ..        ..   ",
"     ..       ...   ",
"    ...     .....   ",
"   ....    ......   ",
"  .....      ....   ",
"   ....       ...   ",
"    ...         .   ",
"      .             "};
